<?xml version="1.0" encoding="UTF-8"?>
<svg version="1.1" xmlns="http://www.w3.org/2000/svg" width="500" height="102">
<path d="M0 0 C0.93513428 0.00821777 1.87026855 0.01643555 2.83374023 0.02490234 C3.85274414 0.02876953 4.87174805 0.03263672 5.92163086 0.03662109 C6.98446289 0.06111328 8.04729492 0.08560547 9.14233398 0.11083984 C10.2090332 0.11212891 11.27573242 0.11341797 12.37475586 0.11474609 C20.29907446 0.20508031 20.29907446 0.20508031 22.57983398 2.48583984 C22.55639648 5.25146484 22.55639648 5.25146484 22.20483398 8.73583984 C21.77337154 13.84498656 21.42729394 18.92086315 21.32983398 24.04833984 C21.30405273 25.16337891 21.27827148 26.27841797 21.25170898 27.42724609 C21.61778844 30.83962955 22.61522179 32.70953262 24.57983398 35.48583984 C27.02463477 35.29755213 27.02463477 35.29755213 29.57983398 34.48583984 C31.89502478 31.16845686 31.77682646 28.24842597 31.66967773 24.29443359 C31.64969727 23.10269531 31.6297168 21.91095703 31.60913086 20.68310547 C31.54783523 18.17259292 31.48271878 15.66217081 31.41381836 13.15185547 C31.38578125 11.36618164 31.38578125 11.36618164 31.35717773 9.54443359 C31.32873779 8.45445068 31.30029785 7.36446777 31.27099609 6.24145508 C31.57983398 3.48583984 31.57983398 3.48583984 32.79492188 1.63208008 C35.10799272 0.14666528 36.62002461 0.09837913 39.36108398 0.08740234 C40.2853418 0.08353516 41.20959961 0.07966797 42.16186523 0.07568359 C43.60625977 0.09308594 43.60625977 0.09308594 45.07983398 0.11083984 C46.04276367 0.09923828 47.00569336 0.08763672 47.99780273 0.07568359 C48.92206055 0.07955078 49.84631836 0.08341797 50.79858398 0.08740234 C51.64356445 0.09078613 52.48854492 0.09416992 53.35913086 0.09765625 C56.08386331 0.57394523 56.95099924 1.2781261 58.57983398 3.48583984 C59.15944039 6.2133994 59.52376281 8.7222762 59.76733398 11.48583984 C59.88467896 12.74908081 59.88467896 12.74908081 60.00439453 14.0378418 C60.67465104 22.45442166 60.81909269 30.88539133 60.87637329 39.32495117 C60.88693546 40.87902368 60.90182364 42.43307337 60.92123413 43.98706055 C61.04385381 55.33813945 60.88271953 65.09312423 52.63452148 73.70068359 C41.64551015 83.24817063 26.19346972 84.08184629 12.33203125 83.13134766 C-3.53758462 81.81447583 -3.53758462 81.81447583 -7.18579102 79.23974609 C-9.73593223 75.61628595 -8.65139513 70.72889411 -8.42016602 66.48583984 C-8.38922852 65.68404297 -8.35829102 64.88224609 -8.32641602 64.05615234 C-8.17016602 61.92333984 -8.17016602 61.92333984 -7.42016602 58.48583984 C-5.71704102 57.15380859 -5.71704102 57.15380859 -3.42016602 56.48583984 C-0.82641602 57.16552734 -0.82641602 57.16552734 2.07983398 58.36083984 C9.72994383 61.10368411 17.42959205 62.23261314 25.07983398 58.86083984 C28.68996572 56.73236634 30.72085006 54.28126536 32.57983398 50.48583984 C32.91692461 47.73325172 32.91692461 47.73325172 32.57983398 45.48583984 C32.06420898 46.53771484 31.54858398 47.58958984 31.01733398 48.67333984 C28.56493392 52.81966573 26.17239017 55.74915893 21.57983398 57.48583984 C14.1759399 58.390856 8.10464382 58.33547765 1.57983398 54.48583984 C-3.64552443 49.98960121 -6.35531444 45.26827284 -7.42016602 38.48583984 C-7.85154056 29.86838087 -7.47303375 21.31339287 -6.60766602 12.73583984 C-6.50264771 11.59272339 -6.50264771 11.59272339 -6.39550781 10.42651367 C-5.34240342 1.07246876 -5.34240342 1.07246876 0 0 Z " fill="#C2FC60" transform="translate(267.420166015625,17.51416015625)"/>
<path d="M0 0 C1.91955566 -0.38095093 1.91955566 -0.38095093 4.29101562 -0.38818359 C5.17954224 -0.39764008 6.06806885 -0.40709656 6.98352051 -0.4168396 C7.94802124 -0.41076691 8.91252197 -0.40469421 9.90625 -0.3984375 C10.90072144 -0.40130768 11.89519287 -0.40417786 12.9197998 -0.40713501 C15.0314999 -0.40918035 17.14321875 -0.40361782 19.25488281 -0.39111328 C22.45942747 -0.37520146 25.66268465 -0.39087584 28.8671875 -0.41015625 C30.92187775 -0.40817126 32.97656721 -0.4043223 35.03125 -0.3984375 C35.97955688 -0.40451019 36.92786377 -0.41058289 37.90490723 -0.4168396 C46.8340484 -0.32443049 55.04297592 1.09334234 61.65625 7.47265625 C64.7227294 10.95810231 65.17726975 13.79554735 64.9375 18.3125 C64.08091874 24.16256068 61.72519294 28.74900206 57.13671875 32.5390625 C52.95120007 35.31857199 48.87963727 36.88174979 44 38 C44.96099609 38.32871094 44.96099609 38.32871094 45.94140625 38.6640625 C56.55539595 42.55533145 61.01107385 47.03690833 65.8359375 57.29296875 C67.37787036 60.87873879 68.1555362 63.68209454 68.1875 67.5625 C68.20167969 68.34753906 68.21585937 69.13257812 68.23046875 69.94140625 C68 72 68 72 66 74 C63.43383789 74.25878906 63.43383789 74.25878906 60.22265625 74.265625 C59.06958984 74.26820312 57.91652344 74.27078125 56.72851562 74.2734375 C55.51873047 74.26570313 54.30894531 74.25796875 53.0625 74.25 C51.25362305 74.26160156 51.25362305 74.26160156 49.40820312 74.2734375 C48.25384766 74.27085938 47.09949219 74.26828125 45.91015625 74.265625 C44.84933838 74.26336914 43.78852051 74.26111328 42.69555664 74.25878906 C40 74 40 74 37 72 C36.2265625 68.875 36.2265625 68.875 35.625 65 C34.50438048 58.59931667 33.10161631 52.22868934 29 47 C26.92627018 46.18959731 26.92627018 46.18959731 25 46 C24.90618004 51.01415588 24.89414284 55.99850752 25.29296875 61 C25.37333374 62.01018188 25.37333374 62.01018188 25.45532227 63.04077148 C25.61959104 64.99805165 25.79784047 66.95414288 25.9765625 68.91015625 C25.98429687 69.92980469 25.99203125 70.94945313 26 72 C23.35893402 74.64106598 22.12217546 74.25746688 18.44140625 74.265625 C17.33345703 74.26820312 16.22550781 74.27078125 15.08398438 74.2734375 C13.92189453 74.26570313 12.75980469 74.25796875 11.5625 74.25 C10.40427734 74.25773437 9.24605469 74.26546875 8.05273438 74.2734375 C6.94349609 74.27085938 5.83425781 74.26828125 4.69140625 74.265625 C3.16302124 74.26224121 3.16302124 74.26224121 1.60375977 74.25878906 C-1 74 -1 74 -4 72 C-4.37231445 69.09960938 -4.37231445 69.09960938 -4.36328125 65.34375 C-4.36459549 64.66123169 -4.36590973 63.97871338 -4.36726379 63.2755127 C-4.36566243 61.0166013 -4.34026062 58.75873151 -4.3125 56.5 C-4.30246834 54.93489649 -4.29254123 53.36979231 -4.28271484 51.8046875 C-4.17947175 40.52365852 -3.75302825 29.26322112 -3.125 18 C-3.08597565 17.26144775 -3.04695129 16.52289551 -3.00674438 15.76196289 C-2.89304313 13.67380858 -2.76572502 11.58700997 -2.6328125 9.5 C-2.52283936 7.72109375 -2.52283936 7.72109375 -2.41064453 5.90625 C-2 3 -2 3 0 0 Z M25 22 C24.08307039 24.75078884 23.89113917 26.35948913 23.9375 29.1875 C23.958125 30.445625 23.97875 31.70375 24 33 C30.14723426 32.76791295 30.14723426 32.76791295 35.625 30.25 C37.26472092 28.05528575 37.26472092 28.05528575 36.8125 25.3125 C36.21073101 23.06648733 36.21073101 23.06648733 35 22 C33.31391034 21.92794489 31.62499341 21.91613932 29.9375 21.9375 C29.01839844 21.94652344 28.09929688 21.95554687 27.15234375 21.96484375 C26.44207031 21.97644531 25.73179688 21.98804687 25 22 Z " fill="#C2FC60" transform="translate(10,2)"/>
<path d="M0 0 C0.85078125 -0.020625 1.7015625 -0.04125 2.578125 -0.0625 C11.19042295 -0.11615918 11.19042295 -0.11615918 14.625 3.25 C15.64233022 8.53977931 15.91926148 13.87201583 16.17578125 19.2421875 C16.21762039 20.10552704 16.25945953 20.96886658 16.30256653 21.85836792 C16.72740042 31.386169 16.81110639 40.91161294 16.81030273 50.44775391 C16.8125453 53.43535517 16.83095845 56.42261718 16.84960938 59.41015625 C16.85253455 61.31770709 16.85452519 63.22525965 16.85546875 65.1328125 C16.86265427 66.02219513 16.86983978 66.91157776 16.87724304 67.82791138 C16.85389832 74.02110168 16.85389832 74.02110168 14.625 76.25 C12.2265625 76.50878906 12.2265625 76.50878906 9.25 76.515625 C8.18265625 76.51820312 7.1153125 76.52078125 6.015625 76.5234375 C4.89671875 76.51570313 3.7778125 76.50796875 2.625 76.5 C1.50609375 76.50773437 0.3871875 76.51546875 -0.765625 76.5234375 C-1.83296875 76.52085938 -2.9003125 76.51828125 -4 76.515625 C-5.47339844 76.51224121 -5.47339844 76.51224121 -6.9765625 76.50878906 C-9.375 76.25 -9.375 76.25 -11.375 74.25 C-11.71370968 67.92741935 -11.71370968 67.92741935 -10.375 65.25 C-11.035 65.25 -11.695 65.25 -12.375 65.25 C-12.643125 65.84554687 -12.91125 66.44109375 -13.1875 67.0546875 C-15.54489612 71.41276849 -19.11238959 74.39125347 -23.7421875 76.1484375 C-31.0805378 77.90872714 -36.92952925 76.97273538 -43.625 73.625 C-50.76241637 67.46086768 -52.91764413 60.12526389 -53.62890625 50.98828125 C-53.94612409 41.68663548 -52.8363223 32.39744675 -47.0625 24.75 C-41.59555918 19.66447365 -38.26067509 18.00738968 -30.8125 17.8125 C-24.90697617 18.02872055 -20.98629318 18.63264814 -16.69140625 22.9375 C-12.375 27.72243072 -12.375 27.72243072 -12.375 30.25 C-11.715 30.25 -11.055 30.25 -10.375 30.25 C-10.50777344 29.30640625 -10.64054687 28.3628125 -10.77734375 27.390625 C-13.94192913 4.38385827 -13.94192913 4.38385827 -12.375 1.25 C-8.23358936 -0.13047021 -4.33798777 0.02605398 0 0 Z M-24.375 41.25 C-25.53843227 43.57686453 -25.57395988 45.09721413 -25.625 47.6875 C-25.65078125 48.46996094 -25.6765625 49.25242187 -25.703125 50.05859375 C-25.2950991 52.78362385 -24.53796559 53.59477281 -22.375 55.25 C-18.69024193 56.45155154 -17.04995107 56.55812984 -13.5 54.9375 C-10.71776366 51.41878934 -10.66489909 48.99843691 -10.87890625 44.6015625 C-11.2305759 41.98006172 -11.2305759 41.98006172 -13.6875 39.625 C-18.24880786 37.29130761 -20.36396437 38.5056072 -24.375 41.25 Z " fill="#C1FD5F" transform="translate(477.375,-0.25)"/>
<path d="M0 0 C9.60937271 -0.23248482 22.7944657 -0.32842386 31.40625 4.1171875 C33.64382398 9.18689084 33.66050224 14.1211223 33.53125 19.5546875 C33.52222656 20.28623047 33.51320313 21.01777344 33.50390625 21.77148438 C33.48061153 23.55353048 33.4447519 25.33540509 33.40625 27.1171875 C30.65653091 28.19627348 29.54835844 28.16792578 26.71484375 27.15625 C25.76738281 26.68960937 24.81992188 26.22296875 23.84375 25.7421875 C19.00718625 23.39281189 15.44620972 21.97735199 10.03125 21.9921875 C9.09539062 21.98960938 8.15953125 21.98703125 7.1953125 21.984375 C4.49895253 22.11277309 2.03353491 22.51530041 -0.59375 23.1171875 C0.03574829 25.59395215 0.03574829 25.59395215 1.40625 28.1171875 C3.71547873 29.43441361 3.71547873 29.43441361 6.53515625 30.14453125 C7.57091797 30.46228516 8.60667969 30.78003906 9.67382812 31.10742188 C10.76115234 31.42001953 11.84847656 31.73261719 12.96875 32.0546875 C21.82169215 34.63253509 30.56284102 37.22557607 36.46875 44.7421875 C38.2751916 51.24537726 38.83165382 58.33095621 35.65625 64.4921875 C30.55316194 71.37275568 21.90584945 74.10927696 13.78125 75.4921875 C4.65384256 76.71396645 -4.20781033 76.13105941 -13.28125 74.8046875 C-14.17908203 74.68673828 -15.07691406 74.56878906 -16.00195312 74.44726562 C-21.32490069 73.68684454 -25.80903845 72.60882444 -30.59375 70.1171875 C-31.84623502 67.61221746 -31.70749406 65.90865476 -31.69140625 63.109375 C-31.68818359 62.12324219 -31.68496094 61.13710938 -31.68164062 60.12109375 C-31.67326172 59.08855469 -31.66488281 58.05601563 -31.65625 56.9921875 C-31.65173828 55.95191406 -31.64722656 54.91164062 -31.64257812 53.83984375 C-31.63076952 51.26556788 -31.61430075 48.69140604 -31.59375 46.1171875 C-29.74169922 45.05175781 -29.74169922 45.05175781 -27.59375 44.1171875 C-25.2265625 45.1640625 -25.2265625 45.1640625 -22.71875 46.8671875 C-16.41905222 51.09331705 -11.4532144 52.38739907 -3.84375 52.3046875 C-2.52890625 52.29824219 -1.2140625 52.29179688 0.140625 52.28515625 C3.29098183 52.34177104 3.29098183 52.34177104 5.40625 51.1171875 C5.58380353 48.7092574 5.58380353 48.7092574 4.40625 46.1171875 C1.72624596 44.47697081 -1.18811351 43.5534666 -4.15625 42.5546875 C-23.72668172 35.64653347 -23.72668172 35.64653347 -27.6328125 28.11328125 C-29.92664968 22.3786883 -29.90999087 17.84284834 -27.59375 12.1171875 C-23.75712501 5.46703751 -17.70131532 3.42737911 -10.59375 1.1171875 C-7.05094678 0.23634429 -3.63241425 0.1641151 0 0 Z " fill="#C2FD5F" transform="translate(169.59375,0.8828125)"/>
<path d="M0 0 C4.2161057 4.7692391 5.80457455 9.24515036 5.578125 15.59765625 C4.96115916 20.72555269 2.52793781 23.67587365 -1.34765625 26.828125 C-7.8248412 31.32322057 -13.56899112 32.05069528 -21.31640625 31.0703125 C-24.41450004 30.4197128 -26.96165656 29.21142744 -29.66015625 27.578125 C-29.66015625 28.238125 -29.66015625 28.898125 -29.66015625 29.578125 C-22.9700298 33.69512589 -17.4661656 34.4800573 -9.66015625 33.578125 C-6.11141475 32.63856553 -3.35452953 31.13362362 -0.47265625 28.828125 C1.33984375 27.578125 1.33984375 27.578125 3.46484375 27.515625 C5.33984375 28.578125 5.33984375 28.578125 6.58984375 30.890625 C7.64366926 36.07193376 8.04541115 41.32050984 7.33984375 46.578125 C4.31581718 50.82683523 -0.81089559 51.57120845 -5.66015625 52.578125 C-17.40815329 54.1748141 -30.1726182 54.69166349 -40.58984375 48.1953125 C-46.37269921 43.67813861 -50.86302501 38.79282176 -52.66015625 31.578125 C-53.5702016 21.88374713 -53.89180566 12.62042314 -47.66015625 4.578125 C-41.67455372 -2.12217634 -34.88191953 -5.52937917 -25.91796875 -6.35546875 C-17.03243718 -6.61680791 -7.05770315 -6.04471517 0 0 Z M-28.09765625 13.328125 C-29.89449863 15.42226057 -29.89449863 15.42226057 -29.53515625 17.765625 C-28.79816377 19.76372631 -28.79816377 19.76372631 -26.66015625 20.578125 C-22.00739649 20.8833872 -22.00739649 20.8833872 -17.66015625 19.578125 C-17.49334516 16.66160326 -17.49334516 16.66160326 -17.66015625 13.578125 C-19.53440341 11.297404 -19.53440341 11.297404 -22.53515625 11.203125 C-25.73058179 11.3317778 -25.73058179 11.3317778 -28.09765625 13.328125 Z " fill="#C2FC60" transform="translate(128.66015625,23.421875)"/>
<path d="M0 0 C4.33512508 4.41849287 6.04859507 9.36982404 6.1875 15.53125 C4.72032691 20.79581225 2.44605274 24.12440781 -1.8125 27.53125 C-10.52370496 32.10606223 -18.48025025 32.0498943 -27.72265625 29.22265625 C-28.41230469 28.99449219 -29.10195313 28.76632813 -29.8125 28.53125 C-22.71702635 33.41924296 -17.37161833 34.49844077 -8.8125 33.53125 C-6.01073416 32.47534641 -3.54993107 31.23264718 -0.96875 29.72265625 C1.10557672 28.57651558 2.87464112 27.98856528 5.1875 27.53125 C7.53464882 31.05197324 7.72951488 33.88011264 8 37.96875 C8.06380859 38.63712891 8.12761719 39.30550781 8.19335938 39.99414062 C8.40877781 43.05550964 8.38594445 45.14826485 6.9609375 47.8984375 C0.16511999 54.15537961 -12.063201 53.52263849 -20.8125 53.53125 C-30.24368573 52.92527428 -39.46968826 50.40956874 -46.1875 43.40625 C-51.30693663 36.68698942 -53.5703552 28.67989041 -53.1875 20.29296875 C-52.07656403 12.11138821 -49.23606412 5.77289207 -43.08984375 0.1875 C-31.13236934 -8.50884503 -11.76459919 -9.53338211 0 0 Z M-27.75 13.96875 C-28.430625 14.814375 -29.11125 15.66 -29.8125 16.53125 C-29.4825 17.52125 -29.1525 18.51125 -28.8125 19.53125 C-26.58359005 20.64570498 -25.28194894 20.69605286 -22.8125 20.71875 C-21.760625 20.74001953 -21.760625 20.74001953 -20.6875 20.76171875 C-18.56725062 20.69637323 -18.56725062 20.69637323 -16.8125 18.53125 C-17.13448966 15.43198181 -17.13448966 15.43198181 -17.8125 12.53125 C-23.19662117 11.09935462 -23.19662117 11.09935462 -27.75 13.96875 Z " fill="#C2FC60" transform="translate(414.8125,23.46875)"/>
<path d="M0 0 C0 3.96 0 7.92 0 12 C1.05960938 11.96519531 2.11921875 11.93039063 3.2109375 11.89453125 C4.59894252 11.86639601 5.98696463 11.83909557 7.375 11.8125 C8.07367188 11.78736328 8.77234375 11.76222656 9.4921875 11.73632812 C11.5234375 11.70703125 11.5234375 11.70703125 15 12 C17.38081145 15.57121718 17.26906871 17.26674633 17.25 21.5 C17.25773437 23.21703125 17.25773437 23.21703125 17.265625 24.96875 C17 28 17 28 15 31 C12.35418391 31.22296203 10.00720498 31.28148752 7.375 31.1875 C4.94125 31.125625 2.5075 31.06375 0 31 C0 36.28 0 41.56 0 47 C2.59875 47.0309375 2.59875 47.0309375 5.25 47.0625 C6.22453125 47.07410156 7.1990625 47.08570313 8.203125 47.09765625 C10.93519535 47.12823339 10.93519535 47.12823339 13.171875 46.30859375 C15 46 15 46 16.72265625 46.94140625 C18.68858203 50.10973312 18.47308341 53.32416646 18.4375 56.9375 C18.4674707 58.01161133 18.4674707 58.01161133 18.49804688 59.10742188 C18.49491061 62.49145659 18.26650028 64.61332553 16.328125 67.42578125 C9.43668025 72.08560043 -1.73954419 71.88793509 -9.75390625 70.53515625 C-16.04456884 69.08873179 -20.85207347 67.07232159 -25 62 C-28.98554567 54.56031475 -29.13045435 47.81137646 -28.5625 39.625 C-28.51029297 38.79355469 -28.45808594 37.96210937 -28.40429688 37.10546875 C-28.27561269 35.06991892 -28.13864593 33.03489559 -28 31 C-28.94875 31.04125 -29.8975 31.0825 -30.875 31.125 C-34 31 -34 31 -36 29 C-36.19849071 26.45464859 -36.27851775 24.04283241 -36.25 21.5 C-36.25773438 20.81035156 -36.26546875 20.12070312 -36.2734375 19.41015625 C-36.25333293 14.25333293 -36.25333293 14.25333293 -34 12 C-30.375 11.875 -30.375 11.875 -27 12 C-27.061875 10.783125 -27.12375 9.56625 -27.1875 8.3125 C-27.17367455 4.41372216 -26.65176914 2.0175304 -24 -1 C-16.20498371 -3.14193491 -7.55866594 -2.7486058 0 0 Z " fill="#C2FD5F" transform="translate(241,6)"/>
<path d="M0 0 C0.75539063 -0.01224609 1.51078125 -0.02449219 2.2890625 -0.03710938 C3.39507812 -0.04000977 3.39507812 -0.04000977 4.5234375 -0.04296875 C5.19036621 -0.04707764 5.85729492 -0.05118652 6.54443359 -0.05541992 C9.12952683 0.24640685 11.23066483 1.19255553 13.625 2.1875 C13.54073093 11.54073731 13.44590059 20.8937898 13.33747292 30.24677849 C13.28746332 34.58945376 13.24113391 38.93210414 13.203125 43.27490234 C13.16633081 47.463609 13.1199873 51.6521098 13.06693649 55.84064102 C13.04836122 57.4410352 13.03326491 59.04147357 13.02165604 60.64193344 C13.00484676 62.87852954 12.97582587 65.11465091 12.94384766 67.35107422 C12.93052399 68.62570526 12.91720032 69.9003363 12.9034729 71.21359253 C12.625 74.1875 12.625 74.1875 10.625 76.1875 C6.66655547 76.69655296 2.67495497 76.60424402 -1.3125 76.625 C-2.42302734 76.65787109 -3.53355469 76.69074219 -4.67773438 76.72460938 C-5.74185547 76.73169922 -6.80597656 76.73878906 -7.90234375 76.74609375 C-8.87937256 76.75954834 -9.85640137 76.77300293 -10.86303711 76.78686523 C-13.375 76.1875 -13.375 76.1875 -15.19433594 73.96875 C-16.41689229 71.08881577 -16.74901243 69.23601887 -16.73828125 66.12890625 C-16.73916748 65.12102051 -16.74005371 64.11313477 -16.7409668 63.07470703 C-16.72332275 61.97755371 -16.70567871 60.88040039 -16.6875 59.75 C-16.6769458 58.59870605 -16.6663916 57.44741211 -16.65551758 56.26123047 C-16.511491 46.29407 -16.14090563 36.33140109 -15.68026733 26.37423706 C-15.60200699 24.67187684 -15.52762034 22.96933396 -15.45718384 21.26663208 C-15.35444295 18.8564811 -15.23276355 16.44802686 -15.10546875 14.0390625 C-15.07717987 13.31928726 -15.04889099 12.59951202 -15.01974487 11.85792542 C-14.76557964 7.55142981 -14.07513065 4.59468345 -11.375 1.1875 C-7.56514895 -0.08245035 -3.96890381 0.00335211 0 0 Z " fill="#C1FD5F" transform="translate(346.375,-0.1875)"/>
<path d="M0 0 C1.875 1 1.875 1 3 3 C3.41998341 5.85238734 3.27946081 8.06566149 3 11 C0.08235 12.9451 -1.62537285 13.45276317 -5 14 C-3.35 14.99 -1.7 15.98 0 17 C-0.33 17.99 -0.66 18.98 -1 20 C0.0725 19.525625 1.145 19.05125 2.25 18.5625 C7.68778867 16.48909857 13.23441213 16.27867008 19 16 C14.36855973 20.34197525 9.72413282 22 3.47265625 22 C-1.51154132 21.64023837 -5.91230075 21.06577444 -10 18 C-11.4375 14.4375 -11.4375 14.4375 -12 11 C-11.67 10.34 -11.34 9.68 -11 9 C-10.43796875 9.16371094 -9.8759375 9.32742187 -9.296875 9.49609375 C-6.86940944 10.02864997 -4.73110319 10.09898681 -2.25 10.0625 C-1.05117187 10.04896484 -1.05117187 10.04896484 0.171875 10.03515625 C0.77515625 10.02355469 1.3784375 10.01195312 2 10 C1.34 7.69 0.68 5.38 0 3 C-4.16992206 2.58737948 -4.16992206 2.58737948 -7.75 4.375 C-8.36875 5.179375 -8.36875 5.179375 -9 6 C-9.66 6.66 -10.32 7.32 -11 8 C-11 6.02 -11 4.04 -11 2 C-7.18791906 0.20607956 -4.21284637 -0.45791808 0 0 Z " fill="#CCF36E" transform="translate(109,33)"/>
<path d="M0 0 C2.625 0.375 2.625 0.375 5 1 C5 1.33 5 1.66 5 2 C3.35 2.33 1.7 2.66 0 3 C0 5.97 0 8.94 0 12 C0.66 12 1.32 12 2 12 C2.66 10.02 3.32 8.04 4 6 C4.99 6 5.98 6 7 6 C6.21302675 9.41021743 5.12880057 12.68885166 4 16 C2.35 16 0.7 16 -1 16 C-1 17.65 -1 19.3 -1 21 C0.65 21 2.3 21 4 21 C4.33 21.66 4.66 22.32 5 23 C7.38704711 23.32564607 9.66270393 23.51821816 12.0625 23.625 C12.76898682 23.66222168 13.47547363 23.69944336 14.20336914 23.73779297 C19.44628956 23.98908258 24.68889886 24.0998613 29.9375 24.125 C30.6291626 24.12967285 31.3208252 24.1343457 32.03344727 24.13916016 C35.29727263 24.40447631 35.29727263 24.40447631 38 23 C40.33297433 22.95907063 42.66705225 22.95758277 45 23 C45 22.34 45 21.68 45 21 C47.31 20.67 49.62 20.34 52 20 C51 22 51 22 48.62109375 23.03515625 C33.55042269 27.89845256 15.34117755 28.92013875 0.01171875 24.05078125 C-2 23 -2 23 -3 21 C-3.36414349 14.63819906 -3.13982422 8.26903319 -2 2 C-1.34 1.34 -0.68 0.68 0 0 Z " fill="#D2F276" transform="translate(262,74)"/>
<path d="M0 0 C2.5 1 2.5 1 4 2 C3.67 4.64 3.34 7.28 3 10 C-2.625 12 -2.625 12 -6 12 C-5.67 13.65 -5.34 15.3 -5 17 C-1.846632 17.70074844 0.72724974 18 4 18 C4 17.34 4 16.68 4 16 C6.31 14.68 8.62 13.36 11 12 C11.33 13.32 11.66 14.64 12 16 C13.32 15.67 14.64 15.34 16 15 C16 14.34 16 13.68 16 13 C17.65 13 19.3 13 21 13 C16.68858336 18.20962844 11.04756709 19.82060972 4.5625 20.875 C-0.4321242 21.32512211 -4.42606561 19.85529066 -9 18 C-9.99 17.67 -10.98 17.34 -12 17 C-12 14 -12 14 -10.5 12.3125 C-10.005 11.879375 -9.51 11.44625 -9 11 C-9.33 10.34 -9.66 9.68 -10 9 C-6.7 9 -3.4 9 0 9 C0.74957157 5.52852158 0.74957157 5.52852158 1 2 C-3.24480464 1.66707415 -5.35542625 1.56114128 -8.9375 4 C-9.618125 4.66 -10.29875 5.32 -11 6 C-11.33 5.01 -11.66 4.02 -12 3 C-8.38071483 -0.61928517 -4.83387251 -0.60423406 0 0 Z " fill="#D0F06F" transform="translate(396,34)"/>
<path d="M0 0 C0.33 0 0.66 0 1 0 C0.91573093 9.35323731 0.82090059 18.7062898 0.71247292 28.05927849 C0.66246332 32.40195376 0.61613391 36.74460414 0.578125 41.08740234 C0.54133081 45.276109 0.4949873 49.4646098 0.44193649 53.65314102 C0.42336122 55.2535352 0.40826491 56.85397357 0.39665604 58.45443344 C0.37984676 60.69102954 0.35082587 62.92715091 0.31884766 65.16357422 C0.30552399 66.43820526 0.29220032 67.7128363 0.2784729 69.02609253 C0 72 0 72 -2 74 C-5.98155336 74.45594946 -9.99535129 74.32403413 -14 74.3125 C-15.67835938 74.33666992 -15.67835938 74.33666992 -17.390625 74.36132812 C-18.99164063 74.36229492 -18.99164063 74.36229492 -20.625 74.36328125 C-21.60726563 74.36626221 -22.58953125 74.36924316 -23.6015625 74.37231445 C-24.39304687 74.24945068 -25.18453125 74.12658691 -26 74 C-26.66 73.01 -27.32 72.02 -28 71 C-27.50371094 71.16242188 -27.00742187 71.32484375 -26.49609375 71.4921875 C-23.02249777 72.19886587 -19.59064375 72.14429705 -16.0625 72.125 C-15.00772461 72.13080078 -15.00772461 72.13080078 -13.93164062 72.13671875 C-10.14461425 72.12962029 -6.69135569 71.80328367 -3 71 C-2.99191315 70.44972641 -2.98382629 69.89945282 -2.97549438 69.33250427 C-2.8877391 63.47335132 -2.78822118 57.61447299 -2.68261719 51.75561523 C-2.6449216 49.58476465 -2.60997989 47.41386406 -2.578125 45.24291992 C-2.35314937 30.08167138 -1.53437242 15.0866474 0 0 Z " fill="#D5EB79" transform="translate(359,2)"/>
<path d="M0 0 C1.9375 0.5625 1.9375 0.5625 4 2 C5.03718084 7.28259413 5.29441416 12.62521198 5.55078125 17.9921875 C5.61353996 19.28719681 5.61353996 19.28719681 5.67756653 20.60836792 C6.10240042 30.136169 6.18610639 39.66161294 6.18530273 49.19775391 C6.1875453 52.18535517 6.20595845 55.17261718 6.22460938 58.16015625 C6.22753455 60.06770709 6.22952519 61.97525965 6.23046875 63.8828125 C6.23765427 64.77219513 6.24483978 65.66157776 6.25224304 66.57791138 C6.22889832 72.77110168 6.22889832 72.77110168 4 75 C1.56982422 75.22705078 1.56982422 75.22705078 -1.4453125 75.1953125 C-2.52167969 75.18886719 -3.59804688 75.18242188 -4.70703125 75.17578125 C-5.83496094 75.15902344 -6.96289062 75.14226562 -8.125 75.125 C-9.82849609 75.11146484 -9.82849609 75.11146484 -11.56640625 75.09765625 C-14.37781299 75.07403098 -17.18880298 75.04109013 -20 75 C-20 74.67 -20 74.34 -20 74 C-19.44538086 73.97494385 -18.89076172 73.9498877 -18.31933594 73.92407227 C-15.79601157 73.80772073 -13.27302464 73.68517246 -10.75 73.5625 C-9.87730469 73.52318359 -9.00460937 73.48386719 -8.10546875 73.44335938 C-7.26113281 73.40146484 -6.41679687 73.35957031 -5.546875 73.31640625 C-4.77182617 73.27974854 -3.99677734 73.24309082 -3.19824219 73.20532227 C-1.0425024 73.00396985 0.91801475 72.58270703 3 72 C3.76109315 61.99706144 4.10701954 52.03309723 4.125 42 C4.12951172 40.93136719 4.13402344 39.86273438 4.13867188 38.76171875 C4.13673828 37.76785156 4.13480469 36.77398437 4.1328125 35.75 C4.13168457 34.85796875 4.13055664 33.9659375 4.12939453 33.046875 C4.22683766 31.00647534 4.22683766 31.00647534 3 30 C2.86618173 28.12146247 2.79646631 26.23828558 2.75390625 24.35546875 C2.72103516 23.20369141 2.68816406 22.05191406 2.65429688 20.86523438 C2.59339364 18.42521768 2.53606674 15.98510894 2.48242188 13.54492188 C2.44826172 12.38927734 2.41410156 11.23363281 2.37890625 10.04296875 C2.3538501 8.98102295 2.32879395 7.91907715 2.30297852 6.82495117 C2.00595121 4.05548871 1.42336942 2.36516375 0 0 Z " fill="#D1ED75" transform="translate(488,1)"/>
<path d="M0 0 C1.56529043 3.13058086 1.26691314 6.44079008 1.3125 9.875 C1.34150391 10.59558594 1.37050781 11.31617187 1.40039062 12.05859375 C1.44119814 15.46759073 1.28366473 17.58582287 -0.6640625 20.4296875 C-7.58067372 25.07931578 -18.79995542 24.92061647 -26.82421875 23.5 C-32.65760212 22.12927173 -36.27479081 20.75285311 -40 16 C-38.68 15.67 -37.36 15.34 -36 15 C-35.79375 15.61875 -35.5875 16.2375 -35.375 16.875 C-33.38587753 19.94909836 -31.52268401 20.09246107 -28 21 C-25.09847515 21.31535287 -22.22936384 21.36996659 -19.3125 21.375 C-18.17458008 21.41173828 -18.17458008 21.41173828 -17.01367188 21.44921875 C-14.52882295 21.50871977 -14.52882295 21.50871977 -11 21 C-8.93242808 19.1431261 -8.93242808 19.1431261 -8 17 C-7.34 17.33 -6.68 17.66 -6 18 C-5.01 17.67 -4.02 17.34 -3 17 C-2.34 17 -1.68 17 -1 17 C-1 11.72 -1 6.44 -1 1 C-1.99 1.33 -2.98 1.66 -4 2 C-5.39439664 2.06665376 -6.79169875 2.08538199 -8.1875 2.0625 C-10.0746875 2.0315625 -10.0746875 2.0315625 -12 2 C-12 1.67 -12 1.34 -12 1 C-10.56496445 0.63597631 -9.12683494 0.28413409 -7.6875 -0.0625 C-6.48673828 -0.35833984 -6.48673828 -0.35833984 -5.26171875 -0.66015625 C-3 -1 -3 -1 0 0 Z " fill="#D6F07A" transform="translate(258,53)"/>
<path d="M0 0 C-0.33 0.99 -0.66 1.98 -1 3 C-2.32 3 -3.64 3 -5 3 C-5.33 3.99 -5.66 4.98 -6 6 C-6.99 6.66 -7.98 7.32 -9 8 C-12.41469294 14.59388981 -12.04672512 18.97374241 -10 26 C-9.67 26.99 -9.34 27.98 -9 29 C-5.99152582 30.22520264 -5.99152582 30.22520264 -3 31 C-3 31.66 -3 32.32 -3 33 C-2.32453125 33.11472656 -1.6490625 33.22945312 -0.953125 33.34765625 C2.55977998 34.1236551 5.85728544 35.24153263 9.25 36.4375 C10.49265625 36.86933594 11.7353125 37.30117188 13.015625 37.74609375 C16 39 16 39 17 41 C-7.17552534 35.14647713 -7.17552534 35.14647713 -12.75 26.1875 C-15.12678554 20.12669687 -15.4972835 15.79857239 -12.9453125 9.85546875 C-10.32352001 4.70938844 -6.23261255 0 0 0 Z " fill="#D6EF79" transform="translate(155,4)"/>
<path d="M0 0 C0 3.96 0 7.92 0 12 C-0.66 12 -1.32 12 -2 12 C-2 8.37 -2 4.74 -2 1 C-9.53181418 0.24332624 -16.50280391 -0.14364008 -24 1 C-24.75241109 4.65456815 -25.40049704 8.31733897 -26 12 C-26.33 12 -26.66 12 -27 12 C-27.46077348 2.93812155 -27.46077348 2.93812155 -24 -1 C-16.20498371 -3.14193491 -7.55866594 -2.7486058 0 0 Z " fill="#D3F375" transform="translate(241,6)"/>
<path d="M0 0 C0.495 2.97 0.495 2.97 1 6 C-1 3 -1 3 -1 1 C-9.18651925 -0.72998143 -17.09303214 -1.19302888 -25.4375 -1.1875 C-26.38447754 -1.18814453 -27.33145508 -1.18878906 -28.30712891 -1.18945312 C-32.14309233 -1.15950062 -35.69036479 -1.05677226 -39.47265625 -0.36328125 C-42 0 -42 0 -45 -2 C-30.45084981 -5.20768666 -14.13421965 -5.20734408 0 0 Z " fill="#D8F079" transform="translate(201,5)"/>
<path d="M0 0 C4.30764815 1.56641751 8.06171464 3.68336156 12 6 C10.3125 7.125 10.3125 7.125 8 8 C5.3125 7.375 5.3125 7.375 3 6 C2.1875 3.875 2.1875 3.875 2 2 C1.01 2.495 1.01 2.495 0 3 C-0.0272367 5.52090778 -0.04695207 8.04151457 -0.0625 10.5625 C-0.07087891 11.26697266 -0.07925781 11.97144531 -0.08789062 12.69726562 C-0.10882603 17.24024798 0.25199318 21.51784892 1 26 C2.65 25.67 4.3 25.34 6 25 C5.67 25.99 5.34 26.98 5 28 C2.625 27.6875 2.625 27.6875 0 27 C-2.17746353 23.7338047 -2.25606429 22.75054166 -2.265625 18.96484375 C-2.26820313 17.99095703 -2.27078125 17.01707031 -2.2734375 16.01367188 C-2.26570312 14.99853516 -2.25796875 13.98339844 -2.25 12.9375 C-2.25773438 11.91849609 -2.26546875 10.89949219 -2.2734375 9.84960938 C-2.27085937 8.87701172 -2.26828125 7.90441406 -2.265625 6.90234375 C-2.26336914 6.01023193 -2.26111328 5.11812012 -2.25878906 4.19897461 C-2 2 -2 2 0 0 Z " fill="#D5F07D" transform="translate(140,45)"/>
<path d="M0 0 C0.84755859 0.00322266 1.69511719 0.00644531 2.56835938 0.00976562 C3.8899707 0.02233398 3.8899707 0.02233398 5.23828125 0.03515625 C6.57729492 0.04192383 6.57729492 0.04192383 7.94335938 0.04882812 C10.14590112 0.06060642 12.34830724 0.07705461 14.55078125 0.09765625 C14.55078125 0.42765625 14.55078125 0.75765625 14.55078125 1.09765625 C13.46539062 1.21882812 12.38 1.34 11.26171875 1.46484375 C9.81636721 1.63378094 8.37105683 1.8030705 6.92578125 1.97265625 C6.21292969 2.05128906 5.50007813 2.12992187 4.765625 2.2109375 C0.4687594 2.72340771 -3.37042575 3.56650052 -7.44921875 5.09765625 C-6.95421875 6.27328125 -6.45921875 7.44890625 -5.94921875 8.66015625 C-3.67853384 15.3123036 -4.20263544 22.16592556 -4.44921875 29.09765625 C-7.05131889 25.19450604 -7.16111446 21.93410386 -7.63671875 17.34765625 C-7.73146484 16.56132812 -7.82621094 15.775 -7.92382812 14.96484375 C-8.452473 10.10615349 -8.35489887 5.90225718 -7.44921875 1.09765625 C-4.6251011 0.1562837 -2.92003843 -0.01959757 0 0 Z " fill="#D4F276" transform="translate(472.44921875,-0.09765625)"/>
<path d="M0 0 C0.33 0 0.66 0 1 0 C1.01458252 0.98919434 1.02916504 1.97838867 1.04418945 2.99755859 C1.1020897 6.66182919 1.17932152 10.32547985 1.26245117 13.98925781 C1.2957398 15.57606965 1.32375947 17.16300103 1.34643555 18.75 C1.37991078 21.02916484 1.4322186 23.30723041 1.48828125 25.5859375 C1.49467117 26.29744965 1.5010611 27.00896179 1.50764465 27.74203491 C1.54009648 29.9600456 1.54009648 29.9600456 2 33 C6.47136662 35.98091108 10.73941412 35.36829007 16 35.375 C17.010625 35.39949219 18.02125 35.42398438 19.0625 35.44921875 C20.031875 35.45308594 21.00125 35.45695312 22 35.4609375 C22.886875 35.46915527 23.77375 35.47737305 24.6875 35.48583984 C27.18134934 35.20047164 27.18134934 35.20047164 28.8125 32.97119141 C29.204375 32.32069824 29.59625 31.67020508 30 31 C29.125 35.875 29.125 35.875 28 37 C23.88129085 37.25342626 19.75058067 37.1852282 15.625 37.1875 C14.46226563 37.19974609 13.29953125 37.21199219 12.1015625 37.22460938 C10.9878125 37.22654297 9.8740625 37.22847656 8.7265625 37.23046875 C7.18863037 37.23663208 7.18863037 37.23663208 5.61962891 37.24291992 C3 37 3 37 0 35 C-0.26686213 32.30459685 -0.34818073 29.84152536 -0.29296875 27.1484375 C-0.28872391 26.37440582 -0.28447906 25.60037415 -0.28010559 24.80288696 C-0.26328998 22.32657323 -0.22563395 19.85106842 -0.1875 17.375 C-0.17245682 15.69792841 -0.15876778 14.02084408 -0.14648438 12.34375 C-0.11337721 8.22885419 -0.06157637 4.11456431 0 0 Z " fill="#D7EF79" transform="translate(6,39)"/>
<path d="M0 0 C1.134375 0.020625 2.26875 0.04125 3.4375 0.0625 C0.4375 2.0625 0.4375 2.0625 -1.6875 3.0625 C-3.73294538 3.92110158 -3.73294538 3.92110158 -4.5625 6.0625 C-4.63283769 7.93629605 -4.6468022 9.81251102 -4.625 11.6875 C-4.61597656 12.69039062 -4.60695313 13.69328125 -4.59765625 14.7265625 C-4.58605469 15.49742188 -4.57445312 16.26828125 -4.5625 17.0625 C-2.70625 17.4028125 -2.70625 17.4028125 -0.8125 17.75 C-0.11640625 17.87761719 0.5796875 18.00523438 1.296875 18.13671875 C4.266798 18.03374697 5.38822607 17.18367827 7.4375 15.0625 C8.1325739 12.56842748 8.1325739 12.56842748 8.1875 9.875 C8.24421875 8.97394531 8.3009375 8.07289062 8.359375 7.14453125 C8.38515625 6.45746094 8.4109375 5.77039062 8.4375 5.0625 C8.7675 5.0625 9.0975 5.0625 9.4375 5.0625 C10.20628758 14.97131764 10.20628758 14.97131764 7.5 18.8125 C3.29241964 20.52987974 -0.20424509 20.2214367 -4.5625 19.0625 C-5.5525 18.4025 -6.5425 17.7425 -7.5625 17.0625 C-8.19921297 10.90760796 -7.03206856 6.69311633 -4.5625 1.0625 C-3.5625 0.0625 -3.5625 0.0625 0 0 Z " fill="#D1EB73" transform="translate(457.5625,36.9375)"/>
<path d="M0 0 C0.33 0 0.66 0 1 0 C1.05402274 2.10388569 1.09280256 4.20816714 1.125 6.3125 C1.14820313 7.48425781 1.17140625 8.65601563 1.1953125 9.86328125 C1 13 1 13 -1 16 C-3.64581609 16.22296203 -5.99279502 16.28148752 -8.625 16.1875 C-11.05875 16.125625 -13.4925 16.06375 -16 16 C-16 21.28 -16 26.56 -16 32 C-15.34 32.33 -14.68 32.66 -14 33 C-14.99 33 -15.98 33 -17 33 C-18.47793555 30.04412889 -18.17053651 27.35002355 -18.1875 24.0625 C-18.20167969 22.81597656 -18.21585938 21.56945312 -18.23046875 20.28515625 C-18 17 -18 17 -16 14 C-12.7421875 13.70703125 -12.7421875 13.70703125 -8.875 13.8125 C-5.471875 13.9053125 -5.471875 13.9053125 -2 14 C-1.34 9.38 -0.68 4.76 0 0 Z " fill="#D7E97E" transform="translate(257,21)"/>
<path d="M0 0 C1.125 3.75 1.125 3.75 0 6 C-0.26440811 9.44097783 -0.44459913 12.87548501 -0.60546875 16.32226562 C-0.89926145 21.89926145 -0.89926145 21.89926145 -2 23 C-2.21010236 27.51795136 -2.21010236 27.51795136 -1.4375 31.9375 C-0.71350773 35.3506064 -1.48539393 38.56929286 -2 42 C-2.33 42 -2.66 42 -3 42 C-5.35796424 32.0965502 -4.18918241 21.2274755 -3.125 11.1875 C-3.04660889 10.41704346 -2.96821777 9.64658691 -2.88745117 8.8527832 C-2.46326499 5.21324139 -2.06590245 3.09885367 0 0 Z " fill="#D7EE75" transform="translate(264,19)"/>
<path d="M0 0 C0.66 1.32 1.32 2.64 2 4 C3.32 3.67 4.64 3.34 6 3 C6 2.34 6 1.68 6 1 C7.65 1 9.3 1 11 1 C7.43417187 4.82053014 5.08822272 6.87389959 -0.234375 7.1953125 C-1.39453125 7.17210937 -2.5546875 7.14890625 -3.75 7.125 C-4.92046875 7.10695313 -6.0909375 7.08890625 -7.296875 7.0703125 C-8.63492187 7.03550781 -8.63492187 7.03550781 -10 7 C-8.68 6.67 -7.36 6.34 -6 6 C-6 5.34 -6 4.68 -6 4 C-4.03852126 2.61061923 -2.03833424 1.2739589 0 0 Z " fill="#C5FB64" transform="translate(406,46)"/>
<path d="M0 0 C0 0.33 0 0.66 0 1 C-1.19496094 1.04898437 -2.38992187 1.09796875 -3.62109375 1.1484375 C-15.48777645 1.47807381 -15.48777645 1.47807381 -27 4 C-27.71016921 5.31067994 -28.37728009 6.64558421 -29 8 C-31.5 9.8125 -31.5 9.8125 -34 11 C-34.66 10.67 -35.32 10.34 -36 10 C-25.00399817 -0.67431028 -14.85694771 -1.60950267 0 0 Z " fill="#D7F07A" transform="translate(117,18)"/>
<path d="M0 0 C-6.72596037 3.93405229 -13.39971669 5.97859622 -21.2578125 4.60546875 C-23.1875 4.0625 -23.1875 4.0625 -26 3 C-23.18253296 2.2333423 -20.46711891 1.78190409 -17.5625 1.5 C-13.5932499 1.08355409 -9.76629616 0.53524126 -5.9375 -0.625 C-3.65547236 -1.06668277 -2.21456743 -0.6169481 0 0 Z " fill="#D2EF77" transform="translate(128,50)"/>
<path d="M0 0 C0.99 0 1.98 0 3 0 C3 0.66 3 1.32 3 2 C-8.1396619 7.6993619 -19.9010389 7.23834457 -32 6 C-32 5.67 -32 5.34 -32 5 C-31.36908447 4.97494385 -30.73816895 4.9498877 -30.08813477 4.92407227 C-27.24603175 4.80845863 -24.40428917 4.68557684 -21.5625 4.5625 C-20.56927734 4.52318359 -19.57605469 4.48386719 -18.55273438 4.44335938 C-17.60849609 4.40146484 -16.66425781 4.35957031 -15.69140625 4.31640625 C-14.81685791 4.27974854 -13.94230957 4.24309082 -13.04125977 4.20532227 C-11.0072598 4.21818934 -11.0072598 4.21818934 -10 3 C-8.31816052 2.76712992 -6.6287584 2.58735834 -4.9375 2.4375 C-3.55884766 2.31181641 -3.55884766 2.31181641 -2.15234375 2.18359375 C-1.44207031 2.12300781 -0.73179687 2.06242187 0 2 C0 1.34 0 0.68 0 0 Z " fill="#D8F37C" transform="translate(132,70)"/>
<path d="M0 0 C0.76376953 -0.01224609 1.52753906 -0.02449219 2.31445312 -0.03710938 C9.23835851 -0.05518746 9.23835851 -0.05518746 12.5625 2.1875 C11.43714844 2.13529297 11.43714844 2.13529297 10.2890625 2.08203125 C3.93507234 1.91397861 -1.2880607 2.37370185 -7.28125 4.53125 C-9.4375 5.1875 -9.4375 5.1875 -13.4375 5.1875 C-12.625 3.25 -12.625 3.25 -11.4375 1.1875 C-7.60964707 -0.08845098 -3.9878343 0.00334831 0 0 Z " fill="#D5F374" transform="translate(346.4375,-0.1875)"/>
<path d="M0 0 C2.28219901 3.42329851 2.29741163 4.84137668 2.3125 8.875 C2.32925781 9.90367188 2.34601563 10.93234375 2.36328125 11.9921875 C1.95707915 15.3553662 0.92437719 17.2479883 -1 20 C-2 17 -2 17 -2 13 C-2.99 13.495 -2.99 13.495 -4 14 C-4.33 13.01 -4.66 12.02 -5 11 C-4.03320312 10.64808594 -4.03320312 10.64808594 -3.046875 10.2890625 C-0.7922092 9.18838927 -0.7922092 9.18838927 -0.390625 6.8359375 C-0.34421875 6.02382813 -0.2978125 5.21171875 -0.25 4.375 C-0.19328125 3.55773438 -0.1365625 2.74046875 -0.078125 1.8984375 C-0.05234375 1.27195313 -0.0265625 0.64546875 0 0 Z " fill="#CFF370" transform="translate(205,46)"/>
<path d="M0 0 C-1.24735567 0.6509259 -2.49801832 1.29551669 -3.75 1.9375 C-4.44609375 2.29714844 -5.1421875 2.65679687 -5.859375 3.02734375 C-8 4 -8 4 -12 5 C-7.05 6.98 -7.05 6.98 -2 9 C-2.99 9.33 -3.98 9.66 -5 10 C-5.66 9.67 -6.32 9.34 -7 9 C-8.53668865 8.77532169 -10.07968054 8.59203195 -11.625 8.4375 C-12.44226562 8.35371094 -13.25953125 8.26992188 -14.1015625 8.18359375 C-14.72804687 8.12300781 -15.35453125 8.06242187 -16 8 C-14.25 3.125 -14.25 3.125 -12 2 C-10.00039988 1.960008 -7.99952758 1.95653201 -6 2 C-6 1.34 -6 0.68 -6 0 C-3.50907189 -1.24546405 -2.58919267 -0.7767578 0 0 Z " fill="#D6F278" transform="translate(66,35)"/>
<path d="M0 0 C0.33 0 0.66 0 1 0 C1 5.28 1 10.56 1 16 C-3.28627048 17.07156762 -3.66075382 17.0365854 -7.25 15.0625 C-7.95640625 14.68222656 -8.6628125 14.30195313 -9.390625 13.91015625 C-9.92171875 13.60980469 -10.4528125 13.30945312 -11 13 C-8.33440687 11.22293791 -5.9719385 10.12451727 -3 9 C-2.67 9.99 -2.34 10.98 -2 12 C-2.66 12 -3.32 12 -4 12 C-3.67 12.66 -3.34 13.32 -3 14 C-2.01 14.33 -1.02 14.66 0 15 C0 10.05 0 5.1 0 0 Z " fill="#D5EF76" transform="translate(202,12)"/>
<path d="M0 0 C2.0625 2.25 2.0625 2.25 3 4 C0.63284044 3.59186904 -0.68772885 3.32646529 -2.375 1.5625 C-6.94744153 -2.83407839 -13.92233173 -2.40984332 -19.875 -2.625 C-20.75414062 -2.66367187 -21.63328125 -2.70234375 -22.5390625 -2.7421875 C-24.69238793 -2.83581034 -26.84616414 -2.91896459 -29 -3 C-29 -3.33 -29 -3.66 -29 -4 C-19.31082194 -6.0279675 -8.48840385 -5.450049 0 0 Z " fill="#E0F183" transform="translate(413,22)"/>
<path d="M0 0 C0.66 0.33 1.32 0.66 2 1 C1.01 1.33 0.02 1.66 -1 2 C-1 2.66 -1 3.32 -1 4 C-1.99 4 -2.98 4 -4 4 C-4.33 5.32 -4.66 6.64 -5 8 C-5.66 8 -6.32 8 -7 8 C-7.103125 8.721875 -7.20625 9.44375 -7.3125 10.1875 C-8.33727328 14.37975434 -10.62712517 17.44068776 -13 21 C-12.45553977 14.46647719 -10.98153456 8.68509136 -5.95703125 4.16015625 C-4.01131672 2.69656567 -2.04952964 1.31329084 0 0 Z " fill="#CCF071" transform="translate(438,19)"/>
<path d="M0 0 C14.27589655 -0.5718831 14.27589655 -0.5718831 19 3 C22.10406663 6.11142224 24.59808555 8.79425664 26 13 C25.34 13 24.68 13 24 13 C23.72542969 12.40445312 23.45085937 11.80890625 23.16796875 11.1953125 C21.15159946 7.40534748 18.80222359 5.03263525 15 3 C10.0150241 1.91274188 5.08250573 1.3793891 0 1 C0 0.67 0 0.34 0 0 Z " fill="#D9F279" transform="translate(440,18)"/>
<path d="M0 0 C0.8971875 0.5259375 0.8971875 0.5259375 1.8125 1.0625 C-1.87844468 3.52312979 -3.85794195 3.33066777 -8.25 3.3125 C-9.49910156 3.31765625 -10.74820312 3.3228125 -12.03515625 3.328125 C-15.1875 3.0625 -15.1875 3.0625 -17.1875 1.0625 C-16.35605469 1.00191406 -15.52460938 0.94132812 -14.66796875 0.87890625 C-13.03794922 0.75322266 -13.03794922 0.75322266 -11.375 0.625 C-10.29605469 0.54378906 -9.21710938 0.46257812 -8.10546875 0.37890625 C-0.93108974 -0.39903846 -0.93108974 -0.39903846 0 0 Z " fill="#D1ED76" transform="translate(290.1875,71.9375)"/>
<path d="M0 0 C0.60328125 0.08378906 1.2065625 0.16757813 1.828125 0.25390625 C3.02695312 0.40666016 3.02695312 0.40666016 4.25 0.5625 C5.03890625 0.66691406 5.8278125 0.77132812 6.640625 0.87890625 C9.01504756 1.00077231 10.72073966 0.59038166 13 0 C15.66606019 0.99025093 16.71389765 1.4277953 18 4 C11.94893809 4.21915315 6.69798424 4.18220673 1 2 C0.67 1.34 0.34 0.68 0 0 Z " fill="#C7F966" transform="translate(433,71)"/>
<path d="M0 0 C0.89138672 0.52400391 0.89138672 0.52400391 1.80078125 1.05859375 C8.24666458 4.59731353 13.66884213 5.84668681 21 6 C21 6.33 21 6.66 21 7 C19.31970703 6.98259766 19.31970703 6.98259766 17.60546875 6.96484375 C16.13281417 6.95546378 14.66015778 6.9463638 13.1875 6.9375 C12.44951172 6.92912109 11.71152344 6.92074219 10.95117188 6.91210938 C7.70077932 6.89740172 5.10595105 6.96468298 2 8 C1.855625 7.236875 1.71125 6.47375 1.5625 5.6875 C1.0367406 2.91827092 1.0367406 2.91827092 0 0 Z " fill="#CFEB71" transform="translate(384,52)"/>
<path d="M0 0 C0.33 0 0.66 0 1 0 C1.02693575 2.12493141 1.04636628 4.24995912 1.0625 6.375 C1.07410156 7.55835938 1.08570313 8.74171875 1.09765625 9.9609375 C1 13 1 13 0 15 C-5.28 15 -10.56 15 -16 15 C-16 14.67 -16 14.34 -16 14 C-11.38 14 -6.76 14 -2 14 C-1.34 9.38 -0.68 4.76 0 0 Z " fill="#D1F273" transform="translate(257,21)"/>
<path d="M0 0 C6.23868499 1.74004139 11.00009211 3.83341009 16 8 C16.33 8.99 16.66 9.98 17 11 C16.34 11 15.68 11 15 11 C15 10.34 15 9.68 15 9 C12.66785852 7.79371992 10.50357861 6.8345262 8 6 C8 5.34 8 4.68 8 4 C7.236875 3.896875 6.47375 3.79375 5.6875 3.6875 C2.77363954 2.94209384 1.97049603 2.15541061 0 0 Z " fill="#D6EC79" transform="translate(188,35)"/>
<path d="M0 0 C1.98 0.99 1.98 0.99 4 2 C4 11.24 4 20.48 4 30 C3.67 30 3.34 30 3 30 C2.98018066 29.23333008 2.96036133 28.46666016 2.93994141 27.67675781 C2.84464554 24.20082781 2.73498402 20.72549494 2.625 17.25 C2.57859375 15.44015625 2.57859375 15.44015625 2.53125 13.59375 C2.49257813 12.43359375 2.45390625 11.2734375 2.4140625 10.078125 C2.3826416 9.00981445 2.3512207 7.94150391 2.31884766 6.84082031 C2.00799852 4.07126402 1.42329468 2.36716379 0 0 Z " fill="#CCF26C" transform="translate(488,1)"/>
<path d="M0 0 C1.9375 0.0625 1.9375 0.0625 4 1 C6.96892886 6.49251839 6.17657264 12.93767255 6 19 C5.67 19 5.34 19 5 19 C4.90912109 17.93458984 4.90912109 17.93458984 4.81640625 16.84765625 C4.73261719 15.92855469 4.64882812 15.00945312 4.5625 14.0625 C4.48128906 13.14597656 4.40007812 12.22945312 4.31640625 11.28515625 C4.23955024 9.03840268 4.23955024 9.03840268 3 8 C2.95919217 6.00041636 2.95745644 3.99954746 3 2 C1.68 1.67 0.36 1.34 -1 1 C-0.67 0.67 -0.34 0.34 0 0 Z " fill="#D6ED78" transform="translate(130,51)"/>
<path d="M0 0 C3.91211733 1.15585285 6.8745041 2.35534962 10 5 C7.25 5.75 7.25 5.75 4 6 C1.625 4.1875 1.625 4.1875 0 2 C0 1.34 0 0.68 0 0 Z " fill="#CBF56D" transform="translate(142,47)"/>
<path d="M0 0 C0.99 0.66 1.98 1.32 3 2 C3 2.66 3 3.32 3 4 C2.34 4 1.68 4 1 4 C1 3.34 1 2.68 1 2 C-3.24480464 1.66707415 -5.35542625 1.56114128 -8.9375 4 C-9.618125 4.66 -10.29875 5.32 -11 6 C-11.33 5.01 -11.66 4.02 -12 3 C-8.22438081 -0.77561919 -5.06310909 -0.40183405 0 0 Z " fill="#D6EE80" transform="translate(396,34)"/>
<path d="M0 0 C2.12577907 0.0868276 4.25069581 0.1949951 6.375 0.3125 C7.55835938 0.37050781 8.74171875 0.42851563 9.9609375 0.48828125 C10.96382813 0.65714844 11.96671875 0.82601562 13 1 C13.66 1.99 14.32 2.98 15 4 C4.44191344 3.22095672 4.44191344 3.22095672 0 1 C0 0.67 0 0.34 0 0 Z " fill="#D3F274" transform="translate(377,72)"/>
<path d="M0 0 C1.65 0 3.3 0 5 0 C2.54300608 2.63249349 0.43431346 4.78137264 -3 6 C-3.99 5.67 -4.98 5.34 -6 5 C-2.25 2 -2.25 2 0 2 C0 1.34 0 0.68 0 0 Z " fill="#D5EC7B" transform="translate(412,47)"/>
<path d="M0 0 C2.19398856 3.29098284 2.21503664 3.84832581 1.75 7.5625 C1.66234375 8.34753906 1.5746875 9.13257813 1.484375 9.94140625 C1 12 1 12 -1 14 C-0.67 9.38 -0.34 4.76 0 0 Z " fill="#DAF170" transform="translate(73,13)"/>
<path d="M0 0 C-1.29299694 2.88437779 -2.65941363 4.87219421 -5 7 C-5.99 6.67 -6.98 6.34 -8 6 C-7.67 5.34 -7.34 4.68 -7 4 C-6.34 4 -5.68 4 -5 4 C-4.67 3.01 -4.34 2.02 -4 1 C-2 0 -2 0 0 0 Z " fill="#D4F37A" transform="translate(323,86)"/>
<path d="M0 0 C0.66 0.33 1.32 0.66 2 1 C1.34 4.3 0.68 7.6 0 11 C-0.66 11 -1.32 11 -2 11 C-1.85957123 9.35369672 -1.71250671 7.70795821 -1.5625 6.0625 C-1.48128906 5.14597656 -1.40007812 4.22945312 -1.31640625 3.28515625 C-1 1 -1 1 0 0 Z " fill="#CFF474" transform="translate(302,59)"/>
<path d="M0 0 C-0.33 1.32 -0.66 2.64 -1 4 C-5.455 4.495 -5.455 4.495 -10 5 C-2.5 0 -2.5 0 0 0 Z " fill="#D0EA72" transform="translate(416,53)"/>
<path d="M0 0 C0.66 0.33 1.32 0.66 2 1 C1.01 1.33 0.02 1.66 -1 2 C-1 2.66 -1 3.32 -1 4 C-1.99 4 -2.98 4 -4 4 C-4.33 5.32 -4.66 6.64 -5 8 C-5.99 8 -6.98 8 -8 8 C-6.49776416 3.79373966 -3.71449966 2.26099979 0 0 Z " fill="#D5F179" transform="translate(438,19)"/>
<path d="M0 0 C0.33 0 0.66 0 1 0 C1.33 3.63 1.66 7.26 2 11 C1.01 11.66 0.02 12.32 -1 13 C-0.67 8.71 -0.34 4.42 0 0 Z " fill="#D5F27E" transform="translate(213,38)"/>
<path d="M0 0 C0.33 1.32 0.66 2.64 1 4 C-4.625 6 -4.625 6 -8 6 C-7.0479279 4.99403703 -6.08812654 3.99538437 -5.125 3 C-4.59132813 2.443125 -4.05765625 1.88625 -3.5078125 1.3125 C-2 0 -2 0 0 0 Z " fill="#CFF473" transform="translate(376,22)"/>
<path d="M0 0 C0 1.65 0 3.3 0 5 C-3.16115776 3.63016497 -3.9927092 3.0109362 -6 0 C-3 -1 -3 -1 0 0 Z " fill="#D0F475" transform="translate(374,65)"/>
<path d="M0 0 C1.7074998 1.28062485 3.37373596 2.61767557 5 4 C5 4.66 5 5.32 5 6 C2.0625 5.625 2.0625 5.625 -1 5 C-1.33 4.34 -1.66 3.68 -2 3 C-1.34 3 -0.68 3 0 3 C0 2.01 0 1.02 0 0 Z " fill="#D0F270" transform="translate(68,7)"/>
<path d="M0 0 C6.57142857 5 6.57142857 5 8 10 C7.34 10 6.68 10 6 10 C5.7525 9.4225 5.505 8.845 5.25 8.25 C4.06009525 5.86550111 4.06009525 5.86550111 1.875 3.875 C1.25625 3.25625 0.6375 2.6375 0 2 C0 1.34 0 0.68 0 0 Z " fill="#D5EA6E" transform="translate(458,21)"/>
<path d="M0 0 C2.66355234 -0.39169887 4.39224373 -0.40564529 6.66796875 1.11328125 C8.1510888 2.36389317 9.57954352 3.67864514 11 5 C10.01 5.33 9.02 5.66 8 6 C7.13375 5.071875 7.13375 5.071875 6.25 4.125 C4.19750179 2.18652947 2.56633418 1.09985751 0 0 Z " fill="#D2F476" transform="translate(405,20)"/>
<path d="M0 0 C0.99 0 1.98 0 3 0 C3 0.99 3 1.98 3 3 C-0.33333333 6 -0.33333333 6 -3 6 C-2 4 -1 2 0 0 Z " fill="#BAFE55" transform="translate(87,60)"/>
</svg>
